<svg width="286" height="300" viewBox="0 0 286 300" fill="none" xmlns="http://www.w3.org/2000/svg">
<g clip-path="url(#clip0_9_18)">
<path d="M116.679 27.1483C102.208 33.8784 84.8885 41.8631 78.1658 44.943C71.5571 48.0228 66.2017 50.7605 66.5435 50.9886C67.1132 51.559 91.3833 46.8822 113.261 41.9772C135.708 37.0723 151.546 37.0723 173.765 41.9772C194.845 46.654 219.115 51.3308 219.571 50.8745C219.912 50.5323 203.049 42.4335 189.717 36.5019C186.641 35.019 174.79 29.6578 163.51 24.4107C152.343 19.1635 143.114 14.8289 143 14.943C143 14.943 131.15 20.4183 116.679 27.1483Z" fill="url(#paint0_linear_9_18)"/>
<path d="M42.1594 77.5666C42.1594 78.0228 46.6032 80.7605 52.1865 83.6122C57.6558 86.578 68.0248 92.3955 75.2032 96.3878C82.3817 100.494 92.6367 106.084 97.9921 108.935C119.414 120.228 130.238 134.829 133.315 156.616C133.998 161.065 135.024 167.909 135.594 171.673C136.163 175.437 137.417 184.106 138.442 191.065C139.468 197.909 140.721 206.122 141.291 209.087C141.975 212.167 142.43 216.046 142.43 217.643C142.544 225.285 144.709 215.703 148.014 193.346C149.951 180.114 152.002 166.312 152.571 162.548C153.255 158.783 154.053 153.308 154.394 150.456C156.104 136.882 167.042 121.825 181.741 113.042C187.096 109.848 191.654 107.224 191.996 107.224C192.224 107.224 195.528 105.399 199.402 103.118C203.101 100.862 204.482 100.432 204.656 100.345C205.763 99.792 207.246 98.7931 208.283 98.2759C210.873 96.9828 223.217 89.6578 239.625 80.9886C244.41 78.4791 247.145 75.7415 243.613 76.9962C236.206 79.6198 175.132 93.8783 168.068 94.6768C163.054 95.2472 149.495 95.4753 137.873 95.2472C114.514 94.7909 110.868 94.1065 66.4295 82.9278C53.0981 79.6198 42.1594 77.2243 42.1594 77.5666Z" fill="url(#paint1_linear_9_18)"/>
<path d="M259.337 108.593C258.995 110.646 257.97 123.08 256.944 136.312C253.982 172.585 252.387 184.905 249.766 190.038C244.98 199.277 242.473 200.76 178.209 233.156C154.964 244.791 146.304 248.669 143.114 248.669C138.784 248.669 131.72 245.361 70.7594 214.106C57.9977 207.49 45.8057 200.874 43.7547 199.163C41.7037 197.566 38.7411 193.574 37.1459 190.266C33.9554 183.65 32.1323 170.532 29.6256 135.171C28.9419 125.133 28.0303 115.095 27.5746 112.928C26.4351 107.452 25.5236 147.833 26.0933 177.604L26.4351 201.787L49.4519 215.931C61.9857 223.802 80.7865 235.323 91.1555 241.825C101.524 248.213 115.084 256.54 121.351 260.418C127.618 264.182 134.91 268.745 137.531 270.456C140.151 272.281 142.658 273.764 143 273.764C143.798 273.764 159.978 264.068 186.299 247.757C202.137 237.947 204.986 236.122 239.055 215.019L260.932 201.331V153.194C260.932 126.616 260.705 104.943 260.363 104.943C260.135 104.943 259.679 106.654 259.337 108.593Z" fill="url(#paint2_linear_9_18)"/>
</g>
<defs>
<linearGradient id="paint0_linear_9_18" x1="143.078" y1="14.9408" x2="143.026" y2="51.0359" gradientUnits="userSpaceOnUse">
<stop stop-color="#7117EA"/>
<stop offset="1" stop-color="#EA6060"/>
</linearGradient>
<linearGradient id="paint1_linear_9_18" x1="143.688" y1="76.6816" x2="143.688" y2="220.237" gradientUnits="userSpaceOnUse">
<stop stop-color="#7117EA"/>
<stop offset="1" stop-color="#EA6060"/>
</linearGradient>
<linearGradient id="paint2_linear_9_18" x1="143.426" y1="104.943" x2="143.426" y2="273.764" gradientUnits="userSpaceOnUse">
<stop stop-color="#7117EA"/>
<stop offset="1" stop-color="#EA6060"/>
</linearGradient>
<clipPath id="clip0_9_18">
<rect width="285.52" height="300" fill="white"/>
</clipPath>
</defs>
</svg>
