<svg width="992" height="300" viewBox="0 0 992 300" fill="none" xmlns="http://www.w3.org/2000/svg">
<g clip-path="url(#clip0_6_61)">
<path d="M116.482 27.1483C102.036 33.8783 84.7452 41.8631 78.0339 44.943C71.4363 48.0228 66.0899 50.7605 66.4312 50.9886C66.9999 51.5589 91.2291 46.8821 113.069 41.9772C135.479 37.0723 151.29 37.0723 173.472 41.9772C194.516 46.654 218.745 51.3308 219.2 50.8745C219.541 50.5323 202.706 42.4335 189.397 36.5019C186.326 35.019 174.495 29.6578 163.234 24.4107C152.086 19.1635 142.872 14.8289 142.759 14.943C142.759 14.943 130.928 20.4183 116.482 27.1483Z" fill="url(#paint0_linear_6_61)"/>
<path d="M42.0883 77.5666C42.0883 78.0228 46.5246 80.7605 52.0985 83.6122C57.5585 86.578 67.91 92.3955 75.0763 96.3878C82.2427 100.494 92.4804 106.084 97.8267 108.935C119.212 120.228 130.018 134.829 133.09 156.616C133.772 161.065 134.796 167.909 135.365 171.673C135.934 175.437 137.185 184.106 138.209 191.065C139.232 197.909 140.484 206.122 141.052 209.087C141.735 212.167 142.19 216.046 142.19 217.643C142.304 225.285 144.465 215.703 147.764 193.346C149.698 180.114 151.745 166.312 152.314 162.548C152.996 158.783 153.793 153.308 154.134 150.456C155.84 136.882 166.76 121.825 181.434 113.042C186.781 109.848 191.331 107.224 191.672 107.224C191.899 107.224 195.198 105.399 199.066 103.118C202.759 100.862 204.137 100.432 204.31 100.345C205.416 99.792 206.897 98.7931 207.931 98.2759C210.517 96.9828 222.84 89.6578 239.22 80.9886C243.998 78.4791 246.728 75.7415 243.202 76.9962C235.808 79.6198 174.837 93.8783 167.784 94.6768C162.779 95.2472 149.243 95.4753 137.64 95.2472C114.321 94.7909 110.681 94.1065 66.3174 82.9278C53.0085 79.6198 42.0883 77.2243 42.0883 77.5666Z" fill="url(#paint1_linear_6_61)"/>
<path d="M258.899 108.593C258.558 110.646 257.534 123.08 256.511 136.312C253.553 172.585 251.961 184.905 249.344 190.038C244.567 199.277 242.064 200.76 177.908 233.156C154.703 244.791 146.058 248.669 142.872 248.669C138.55 248.669 131.497 245.361 70.64 214.106C57.8998 207.49 45.7284 200.874 43.6808 199.163C41.6333 197.566 38.6757 193.574 37.0832 190.266C33.8982 183.65 32.0781 170.532 29.5756 135.171C28.8931 125.133 27.9831 115.095 27.528 112.928C26.3905 107.452 25.4805 147.833 26.0493 177.604L26.3905 201.787L49.3684 215.931C61.8811 223.802 80.6502 235.323 91.0016 241.825C101.353 248.213 114.89 256.54 121.146 260.418C127.402 264.182 134.682 268.745 137.299 270.456C139.915 272.281 142.417 273.764 142.759 273.764C143.555 273.764 159.708 264.068 185.984 247.757C201.796 237.947 204.64 236.122 238.652 215.019L260.492 201.331V153.194C260.492 126.616 260.264 104.943 259.923 104.943C259.696 104.943 259.241 106.654 258.899 108.593Z" fill="url(#paint2_linear_6_61)"/>
<path d="M349.194 199.92C343.327 199.92 337.567 199.013 331.914 197.2C326.367 195.28 321.247 192.667 316.554 189.36C316.127 189.04 315.754 188.507 315.434 187.76C315.22 186.907 315.274 186.16 315.594 185.52L321.194 175.44C321.834 174.16 322.847 173.52 324.234 173.52C324.66 173.52 325.034 173.573 325.354 173.68C325.674 173.68 326.1 173.84 326.634 174.16C331.327 177.147 335.487 179.173 339.114 180.24C342.847 181.2 346.154 181.68 349.034 181.68C354.794 181.68 359.274 180.293 362.474 177.52C365.674 174.747 367.274 171.227 367.274 166.96C367.274 163.547 366.207 160.827 364.074 158.8C362.047 156.667 359.114 154.8 355.274 153.2C351.54 151.493 347.167 149.627 342.154 147.6C339.807 146.64 337.14 145.36 334.154 143.76C331.274 142.16 328.447 140.133 325.674 137.68C323.007 135.12 320.767 131.973 318.954 128.24C317.247 124.507 316.394 119.973 316.394 114.64C316.394 108.027 317.834 102.267 320.714 97.36C323.7 92.3467 327.807 88.4533 333.034 85.68C338.26 82.9067 344.287 81.52 351.114 81.52C356.767 81.52 362.367 82.4267 367.914 84.24C373.567 86.0533 378.634 88.6667 383.114 92.08C383.647 92.4 384.02 92.9867 384.234 93.84C384.447 94.5867 384.394 95.28 384.074 95.92L378.794 106C378.154 107.28 377.14 107.92 375.754 107.92C375.327 107.92 374.954 107.92 374.634 107.92C374.314 107.813 373.887 107.6 373.354 107.28C368.767 104.293 364.554 102.32 360.714 101.36C356.874 100.293 353.727 99.76 351.274 99.76C346.367 99.76 342.527 101.093 339.754 103.76C337.087 106.32 335.754 109.627 335.754 113.68C335.754 116.56 336.5 119.12 337.994 121.36C339.487 123.493 341.62 125.413 344.394 127.12C347.274 128.827 350.794 130.533 354.954 132.24C358.154 133.52 361.567 134.96 365.194 136.56C368.927 138.16 372.394 140.187 375.594 142.64C378.794 145.093 381.407 148.187 383.434 151.92C385.567 155.547 386.634 160.187 386.634 165.84C386.634 172.453 385.034 178.373 381.834 183.6C378.74 188.72 374.367 192.72 368.714 195.6C363.167 198.48 356.66 199.92 349.194 199.92ZM471.879 200.08C466.012 200.08 460.519 199.013 455.399 196.88C450.279 194.64 445.745 191.6 441.799 187.76C437.959 183.813 434.919 179.333 432.679 174.32C430.545 169.2 429.479 163.707 429.479 157.84V123.76C429.479 117.893 430.545 112.453 432.679 107.44C434.919 102.32 437.959 97.84 441.799 94C445.745 90.0533 450.279 87.0133 455.399 84.88C460.519 82.64 466.012 81.52 471.879 81.52C477.745 81.52 483.239 82.64 488.359 84.88C493.479 87.0133 497.959 90.0533 501.799 94C505.745 97.84 508.785 102.32 510.919 107.44C513.159 112.453 514.279 117.893 514.279 123.76V157.84C514.279 163.707 513.159 169.2 510.919 174.32C508.785 179.333 505.745 183.813 501.799 187.76C497.959 191.6 493.479 194.64 488.359 196.88C483.239 199.013 477.745 200.08 471.879 200.08ZM471.879 181.36C476.039 181.36 479.825 180.293 483.239 178.16C486.759 176.027 489.532 173.2 491.559 169.68C493.692 166.053 494.759 162.107 494.759 157.84V123.76C494.759 119.493 493.692 115.6 491.559 112.08C489.532 108.453 486.759 105.573 483.239 103.44C479.825 101.307 476.039 100.24 471.879 100.24C467.719 100.24 463.879 101.307 460.359 103.44C456.945 105.573 454.172 108.453 452.039 112.08C450.012 115.6 448.999 119.493 448.999 123.76V157.84C448.999 162.107 450.012 166.053 452.039 169.68C454.172 173.2 456.945 176.027 460.359 178.16C463.879 180.293 467.719 181.36 471.879 181.36ZM567.766 198C565.846 198 564.193 197.36 562.806 196.08C561.526 194.693 560.886 193.04 560.886 191.12V86.96C560.886 86 561.206 85.2 561.846 84.56C562.486 83.92 563.286 83.6 564.246 83.6H577.046C578.006 83.6 578.806 83.92 579.446 84.56C580.086 85.2 580.406 86 580.406 86.96V179.28H617.526C618.486 179.28 619.286 179.6 619.926 180.24C620.566 180.88 620.886 181.68 620.886 182.64V194.64C620.886 195.6 620.566 196.4 619.926 197.04C619.286 197.68 618.486 198 617.526 198H567.766ZM669.423 198C667.503 198 665.849 197.36 664.463 196.08C663.183 194.693 662.543 193.04 662.543 191.12V90.48C662.543 88.56 663.183 86.96 664.463 85.68C665.849 84.2933 667.503 83.6 669.423 83.6H697.743C703.823 83.6 709.316 85.04 714.223 87.92C719.129 90.8 723.023 94.64 725.903 99.44C728.889 104.24 730.383 109.627 730.383 115.6C730.383 119.547 729.529 123.227 727.823 126.64C726.223 130.053 723.769 133.147 720.463 135.92C725.796 138.16 729.956 141.627 732.943 146.32C736.036 151.013 737.583 156.613 737.583 163.12C737.583 169.52 735.983 175.387 732.783 180.72C729.689 185.947 725.476 190.16 720.143 193.36C714.916 196.453 709.049 198 702.543 198H669.423ZM681.743 179.76H701.743C706.543 179.76 710.489 178.213 713.583 175.12C716.676 172.027 718.223 168.027 718.223 163.12C718.223 158.427 716.623 154.587 713.423 151.6C710.329 148.613 706.436 147.12 701.743 147.12H681.743V179.76ZM681.743 129.84H696.303C699.076 129.84 701.583 129.2 703.823 127.92C706.063 126.64 707.823 124.933 709.103 122.8C710.489 120.667 711.183 118.373 711.183 115.92C711.183 111.973 709.689 108.613 706.703 105.84C703.823 103.067 700.356 101.68 696.303 101.68H681.743V129.84ZM805.376 198C804.416 198 803.616 197.68 802.976 197.04C802.336 196.4 802.016 195.6 802.016 194.64V145.68L768.256 89.2C767.83 88.6667 767.616 87.9733 767.616 87.12C767.616 86.16 767.99 85.36 768.736 84.72C769.483 83.9733 770.39 83.6 771.456 83.6H784.736C786.23 83.6 787.296 84.1867 787.936 85.36L811.616 126.48H811.936L835.616 85.36C836.256 84.1867 837.323 83.6 838.816 83.6H852.096C853.27 83.6 854.176 83.9733 854.816 84.72C855.563 85.36 855.936 86.16 855.936 87.12C855.936 87.9733 855.723 88.6667 855.296 89.2L821.536 145.68V194.64C821.536 195.6 821.216 196.4 820.576 197.04C819.936 197.68 819.136 198 818.176 198H805.376ZM927.438 198C926.478 198 925.678 197.68 925.038 197.04C924.398 196.4 924.078 195.6 924.078 194.64V102.32H897.198C896.238 102.32 895.438 102 894.798 101.36C894.158 100.72 893.838 99.92 893.838 98.96V86.96C893.838 86 894.158 85.2 894.798 84.56C895.438 83.92 896.238 83.6 897.198 83.6H970.478C971.438 83.6 972.238 83.92 972.878 84.56C973.518 85.2 973.838 86 973.838 86.96V98.96C973.838 99.92 973.518 100.72 972.878 101.36C972.238 102 971.438 102.32 970.478 102.32H943.598V194.64C943.598 195.6 943.278 196.4 942.638 197.04C941.998 197.68 941.198 198 940.238 198H927.438Z" fill="url(#paint3_linear_6_61)"/>
</g>
<defs>
<linearGradient id="paint0_linear_6_61" x1="142.836" y1="14.9408" x2="142.784" y2="51.0359" gradientUnits="userSpaceOnUse">
<stop stop-color="#7117EA"/>
<stop offset="1" stop-color="#EA6060"/>
</linearGradient>
<linearGradient id="paint1_linear_6_61" x1="143.446" y1="76.6816" x2="143.446" y2="220.237" gradientUnits="userSpaceOnUse">
<stop stop-color="#7117EA"/>
<stop offset="1" stop-color="#EA6060"/>
</linearGradient>
<linearGradient id="paint2_linear_6_61" x1="143.183" y1="104.943" x2="143.183" y2="273.764" gradientUnits="userSpaceOnUse">
<stop stop-color="#7117EA"/>
<stop offset="1" stop-color="#EA6060"/>
</linearGradient>
<linearGradient id="paint3_linear_6_61" x1="644" y1="68" x2="644" y2="228" gradientUnits="userSpaceOnUse">
<stop stop-color="#7117EA"/>
<stop offset="1" stop-color="#EA6060"/>
</linearGradient>
<clipPath id="clip0_6_61">
<rect width="992" height="300" fill="white"/>
</clipPath>
</defs>
</svg>
